<?xml version="1.0" standalone="no"?>
<!DOCTYPE svg PUBLIC "-//W3C//DTD SVG 20010904//EN"
 "http://www.w3.org/TR/2001/REC-SVG-20010904/DTD/svg10.dtd">
<svg version="1.0" xmlns="http://www.w3.org/2000/svg"
 width="256.000000pt" height="256.000000pt" viewBox="0 0 256.000000 256.000000"
 preserveAspectRatio="xMidYMid meet">

<g transform="translate(0.000000,256.000000) scale(0.100000,-0.100000)"
fill="#000000" stroke="none">
<path d="M1553 1984 c-58 -21 -125 -83 -154 -143 l-24 -51 -533 0 -533 0 -24
-25 c-25 -24 -32 -65 -19 -100 17 -44 34 -45 587 -45 l524 0 19 -41 c59 -132
226 -201 367 -153 60 20 139 91 167 149 l22 45 139 0 c180 0 209 13 209 91 0
18 -10 39 -25 54 -23 24 -28 25 -173 25 l-148 0 -21 43 c-32 66 -69 103 -135
136 -52 26 -72 31 -132 30 -39 0 -90 -7 -113 -15z m186 -173 c29 -16 51 -63
51 -111 0 -32 -7 -48 -33 -76 -79 -86 -217 -35 -217 81 0 107 98 159 199 106z"/>
<path d="M793 1133 c-56 -19 -136 -92 -163 -148 l-22 -45 -139 0 c-180 0 -209
-13 -209 -91 0 -18 10 -39 25 -54 23 -24 28 -25 173 -25 l148 0 21 -43 c32
-66 69 -103 135 -136 108 -55 242 -39 331 39 24 21 54 62 68 89 l24 51 533 0
533 0 24 25 c25 24 32 65 19 100 -17 44 -34 45 -587 45 l-524 0 -19 41 c-59
132 -230 202 -371 152z m167 -169 c106 -63 64 -234 -59 -236 -78 -1 -131 52
-131 131 0 43 35 96 74 111 34 14 86 11 116 -6z"/>
</g>
</svg>
